<svg xmlns="http://www.w3.org/2000/svg" width="800" height="800" fill="none" viewBox="0 0 32 32"><path fill="#fff" d="M2 11.956c0-3.485 0-5.228.678-6.559a6.222 6.222 0 0 1 2.72-2.719C6.727 2 8.47 2 11.955 2h8.088c3.485 0 5.228 0 6.559.678a6.222 6.222 0 0 1 2.719 2.72C30 6.727 30 8.47 30 11.955v8.088c0 3.485 0 5.228-.678 6.559a6.222 6.222 0 0 1-2.72 2.719C25.273 30 23.53 30 20.045 30h-8.088c-3.485 0-5.228 0-6.559-.678a6.222 6.222 0 0 1-2.719-2.72C2 25.273 2 23.53 2 20.045v-8.088Z"/><path fill="#34A851" fill-rule="evenodd" d="M24 12.812v.042a9.614 9.614 0 0 1 0 .117c0 3.336-2.6 6.29-4.339 8.266-.504.573-.937 1.064-1.212 1.459-.98 1.403-1.497 2.922-1.633 3.507 0 .44-.365.797-.816.797a.807.807 0 0 1-.816-.797c-.136-.585-.653-2.104-1.633-3.507-.275-.395-.708-.886-1.212-1.46C10.599 19.26 8 16.308 8 12.972v-.159C8 8.497 11.582 5 16 5s8 3.497 8 7.812Zm-8 2.87c1.713 0 3.102-1.357 3.102-3.03 0-1.673-1.389-3.029-3.102-3.029-1.713 0-3.102 1.356-3.102 3.03 0 1.672 1.389 3.028 3.102 3.028Z" clip-rule="evenodd"/><path fill="#4285F5" d="M23.105 9.219a7.978 7.978 0 0 0-4.755-3.876l-4.594 5.219A3.129 3.129 0 0 1 16 9.623c1.713 0 3.102 1.357 3.102 3.03a2.97 2.97 0 0 1-.62 1.818l4.623-5.252Z"/><path fill="#F9BB0E" d="m12.431 21.343-.093-.106c-1.146-1.303-2.666-3.03-3.57-5.011l4.776-5.424a2.97 2.97 0 0 0-.646 1.85c0 1.673 1.389 3.03 3.102 3.03a3.13 3.13 0 0 0 2.215-.91l-5.784 6.57Z"/><path fill="#E74335" d="M9.893 7.766A7.673 7.673 0 0 0 8 12.97c0 1.137.302 2.23.769 3.254l4.767-5.414-3.643-3.045Z"/><path fill="#1A73E6" d="M18.35 5.343A8.177 8.177 0 0 0 16 5a8.062 8.062 0 0 0-6.107 2.766l3.643 3.044.008-.008c.066-.084.137-.165.211-.24l4.595-5.22Z"/></svg>