<svg xmlns="http://www.w3.org/2000/svg" xml:space="preserve" viewBox="0 0 128 128"><path fill="#E074A3" d="M104.6 46.5c5.9-1.5 12-3.6 15.8-8.3-4-5-10.9-7.1-17.8-8.8-9.7-2.2-23.6-3.2-18.6-2.7-4.2.4-8.9.7-14.2.8l.2 21.6c5.1.1 9.7.4 14 .9-4.2.3 11.6-1.1 20.6-3.5z"/><path fill="#90D3EA" d="M25.4 29.5c-7 1.6-13.8 3.7-17.8 8.8 4 5 10.9 7.1 17.8 8.8 9.7 2.3 23.7 3.4 18.6 2.9 5.9-.7 12.6-1 20-1V27.6c-7.4 0-14.1-.4-19.9-.9"/><path fill="#502D4B" d="M83.3 51.2c-.2 0-.5-.1-.7-.2-4-.4-8.3-.6-12.6-.7-.7 0-1.2-.6-1.2-1.2l-.2-21.5c0-.7.5-1.2 1.2-1.3 4.3-.1 8.4-.3 12.3-.7.2-.2.5-.3.8-.3.7 0 11.9 1.1 19.9 3 6.6 1.6 14.1 3.7 18.5 9.2.4.5.4 1.1 0 1.6-3.9 4.9-10.2 7.1-16.4 8.7-7.1 1.9-18.2 3.1-20.7 3.4h-.9zm-12-3.4c4.4.2 8.7.5 12.7.9 2.5-.3 13.4-1.5 20.3-3.3 5.4-1.4 10.9-3.3 14.4-7.1-4-4.3-10.6-6.1-16.4-7.5-6.5-1.5-14.9-2.5-18.1-2.8-4.1.4-8.5.7-13 .8l.1 19zM45 51.3c-.9 0-2.7-.2-6.8-.7-3.6-.5-8.7-1.2-13.1-2.3-6.6-1.6-14.1-3.7-18.5-9.2-.4-.5-.4-1.1 0-1.6 4.4-5.5 11.9-7.6 18.5-9.2.7-.2 1.3.3 1.5.9s-.3 1.3-.9 1.5c-5.9 1.4-12.4 3.2-16.5 7.5 4 4.3 10.6 6.2 16.5 7.5 6.5 1.5 15 2.5 18.2 2.8 5.9-.6 12.2-.9 18.8-.9V28.8c-6.6 0-12.9-.3-18.8-.9-.7-.1-1.2-.7-1.1-1.4.1-.7.7-1.2 1.4-1.1 6.2.6 12.9.9 19.8.9.7 0 1.2.6 1.2 1.2V49c0 .7-.6 1.2-1.2 1.2-6.3 0-12.3.3-18 .8-.2.2-.4.3-1 .3z"/><path fill="#502D4B" d="M70.1 50.8c13.2-.3 25.5-1.8 34.5-4.2 5.9-1.5 12-3.6 15.8-8.3-4-5-10.9-7.1-17.8-8.8-9.7-2.3-23.6-3.3-18.6-2.8-4.2.4-8.9.7-14.2.8l.2 21.6c5.1.1 9.7.4 14 .9-4.2.3-8.8.6-13.9.8zM25.4 29.5c-7 1.6-13.8 3.7-17.8 8.8 4 5 10.9 7.1 17.8 8.8 9.7 2.3 23.7 3.4 18.6 2.9 5.9-.7 12.6-1 20-1V27.6c-7.4 0-14.1-.4-19.9-.9" opacity=".2"/><path fill="#FFF" d="m77.9 14.4-7.3 1.2c-2.5.4-4.1.7-6.6.8-2.6-.1-4.1-.3-6.6-.8l-7.3-1.2c-13.7-2.3-28.2 6.4-28.2 23 0 18.3 12.5 54 22.9 74.1.8 1.6 2.4 2.5 4.2 2.5 2.3 0 4.3-1.7 4.7-4 1.4-9 3.1-21.8 7.5-28.1 1.8-2.5 3.6-2.5 5.4 0 4.4 6.3 6.1 19.1 7.5 28.1.4 2.3 2.4 4 4.7 4 1.8 0 3.4-1 4.2-2.5 10.4-20.1 22.9-55.8 22.9-74.1.2-16.7-14.3-25.3-28-23z"/><path fill="#502D4B" d="m77.9 14.4-.7.1c10.2 2 18.9 10 18.9 22.9 0 17.8-17.2 76.6-17.2 76.6 1.8 0 3.4-1 4.2-2.5C93.5 91.4 106 55.7 106 37.4c.1-16.7-14.4-25.3-28.1-23zM61.3 81.9s.1 0 0 0C57 82.8 47.3 114 49 114c2.3 0 4.4-1.7 4.7-4 2.4-17.9 9.4-30.6 7.6-28.1z" opacity=".2"/><path fill="#502D4B" d="M79 115.2c-3 0-5.5-2.1-6-5.1l-.3-2.2c-1.3-8.4-3.1-19.8-7-25.4-.6-.9-1.2-1.4-1.7-1.4s-1.1.5-1.7 1.4c-3.9 5.6-5.7 17.1-7 25.4l-.3 2.2c-.5 2.9-3 5.1-5.9 5.1-2.3 0-4.3-1.2-5.3-3.2-13.9-26.6-23.1-60.1-23.1-74.6 0-7.3 2.7-13.6 7.7-18.2 4.6-4.1 10.8-6.4 17.3-6.4 1.5 0 3.1.1 4.6.4l7.3 1.2c2.6.4 4 .7 6.5.7 2.4-.1 3.8-.3 6.4-.7l7.3-1.2c1.5-.2 3-.4 4.6-.4 6.6 0 12.7 2.3 17.3 6.4 5.1 4.6 7.7 10.8 7.7 18.2 0 14.6-9.3 48-23.1 74.7-1.1 1.9-3.1 3.1-5.3 3.1zM64 78.7c1.3 0 2.6.8 3.7 2.4 4.2 6.1 6 17.4 7.4 26.5l.3 2.2c.3 1.7 1.7 3 3.5 3 1.3 0 2.5-.7 3.1-1.9 10.8-20.8 22.8-56.1 22.8-73.5 0-14.5-11.4-22.1-22.6-22.1-1.4 0-2.8.1-4.1.3l-7.3 1.2c-2.6.4-4.2.7-6.8.8-2.7-.1-4.3-.3-6.9-.8l-7.3-1.2c-1.4-.2-2.8-.3-4.1-.3-11.2 0-22.6 7.6-22.6 22.1 0 17.4 12 52.7 22.8 73.5.6 1.1 1.8 1.9 3.1 1.9 1.8 0 3.2-1.2 3.5-3l.3-2.2c1.4-9.1 3.2-20.4 7.4-26.4 1.2-1.7 2.5-2.5 3.8-2.5z"/><path fill="#FFF" d="M29.4 39.9c-1.4 0-2.5-1.1-2.5-2.5 0-12.1 9.5-18.4 18.8-18.4 1.4 0 2.5 1.1 2.5 2.5S47.1 24 45.7 24c-9.5 0-13.8 6.7-13.8 13.4 0 1.3-1.1 2.5-2.5 2.5z" opacity=".8"/><path fill="#502D4B" d="M59.3 24.8c-.4 0-.8-.2-1-.5-.4-.6-.3-1.3.3-1.7 6.2-4.6 11.3-7.9 19.2-9.4.7-.1 1.3.3 1.5 1s-.3 1.3-1 1.5c-7.4 1.4-12 4.4-18.1 9-.4 0-.7.1-.9.1z"/><path fill="#90D3EA" d="M51.2 50.5c-9.7-.5-18.6-1.7-25.8-3.4-7-1.6-13.8-3.7-17.8-8.8C5.4 41.1 4 44.8 4 49.9c0 14.2 10.6 17.8 21.4 20.4 7.3 1.7 16.1 2.9 25.8 3.4L64 62.2 51.2 50.5z"/><path fill="#E074A3" d="M120.4 38.3c-3.8 4.7-9.9 6.7-15.8 8.3-9 2.4-21.3 3.9-34.5 4.2h-.2l12.7 11.8-12.5 11.2v.2c13.2-.3 25.5-1.8 34.5-4.2 9.4-2.5 19.4-6.2 19.4-19.9 0-5.1-1.4-8.8-3.6-11.6z"/><path fill="#502D4B" d="M120.4 38.3c-1.9 2.4-4.4 4.1-7.2 5.4.5 1.8.9 3.9.9 6.3 0 13.7-10 17.4-19.4 19.9-6.6 1.7-15 3-24.2 3.7l-.4.3v.2c13.2-.3 25.5-1.8 34.5-4.2C114 67.4 124 63.7 124 50c0-5.2-1.4-8.9-3.6-11.7z" opacity=".2"/><path fill="#502D4B" d="M51.2 75c-9.8-.6-18.8-1.8-26.1-3.5C14.3 69 2.8 65 2.8 49.9c0-5.1 1.3-9.1 3.9-12.4.5-.6 1.5-.6 2 0 3.9 4.9 10.9 6.9 17.1 8.3 7.1 1.7 16 2.9 25.6 3.4.3 0 .6.1.8.3L65 61.3c.3.2.4.6.4.9s-.2.7-.4.9L52.1 74.7c-.2.2-.5.3-.9.3zM7.7 40.3c-1.7 2.6-2.5 5.8-2.5 9.6 0 13.2 9.7 16.6 20.5 19.2 7 1.6 15.6 2.8 25.1 3.4l11.3-10.2-11.4-10.6c-9.6-.6-18.4-1.8-25.6-3.4-6.1-1.5-12.9-3.4-17.4-8zM70.1 75.2c-.3 0-.6-.1-.9-.4-.2-.2-.4-.6-.4-.9v-.2c0-.4.1-.7.4-.9l11.5-10.4L69 51.7c-.4-.3-.5-.9-.3-1.4.2-.5.6-.8 1.1-.8H70.1c13.1-.3 25.2-1.8 34.1-4.2 5.8-1.5 11.6-3.5 15.1-7.9.2-.3.6-.5 1-.5s.7.2 1 .5c2.6 3.3 3.9 7.3 3.9 12.4 0 15.8-13.2 19.2-20.3 21.1-9.1 2.5-21.5 4-34.8 4.3zM73 51.9l10.5 9.7c.3.2.4.6.4.9s-.2.7-.4.9l-10.2 9.2c11.9-.5 22.8-1.9 31-4.1 9.3-2.4 18.5-5.9 18.5-18.7 0-3.9-.8-7-2.5-9.6-3.9 4.1-9.7 6-15.4 7.5-8.5 2.3-19.7 3.7-31.9 4.2z"/></svg>