<svg xmlns="http://www.w3.org/2000/svg" viewBox="0 0 512 512"><path d="M490.744 211.085a8 8 0 0 0 0-16H470.67a80.728 80.728 0 0 0-35.638-72.988 55.786 55.786 0 0 0-57.337-2.532 35.428 35.428 0 0 1-32.534 0 55.788 55.788 0 0 0-57.337 2.532A80.863 80.863 0 0 0 256 164.006a80.861 80.861 0 0 0-31.823-41.91 55.785 55.785 0 0 0-57.336-2.531 35.43 35.43 0 0 1-32.535 0 55.786 55.786 0 0 0-57.337 2.532 80.728 80.728 0 0 0-35.638 72.988H21.256a8 8 0 1 0 0 16H43.85l7.73 39.663q-13.276 4.803-26.386 10.238l-1.356.563a8 8 0 0 0-4.931 7.388v122.194a8 8 0 0 0 8 8h458.187a8 8 0 0 0 8-8V268.937a8.001 8.001 0 0 0-4.913-7.38q-13.783-5.765-27.76-10.81l7.73-39.662Zm-194.003-75.704a39.817 39.817 0 0 1 40.923-1.681 51.422 51.422 0 0 0 47.528 0 39.815 39.815 0 0 1 40.921 1.681 64.764 64.764 0 0 1 28.502 59.705h-45.828v-9.86a20.023 20.023 0 0 0-20-20h-54.72a20.023 20.023 0 0 0-20 20v9.86H268.24a64.764 64.764 0 0 1 28.501-59.705Zm33.326 75.704h62.72v11.023a4.053 4.053 0 0 1-4 4h-54.72a4.053 4.053 0 0 1-4-4Zm0-16v-9.859a4.053 4.053 0 0 1 4-4h54.72a4.053 4.053 0 0 1 4 4v9.86Zm-244.18-59.704a39.816 39.816 0 0 1 40.922-1.681 51.425 51.425 0 0 0 47.529 0 39.815 39.815 0 0 1 40.92 1.681 64.763 64.763 0 0 1 28.502 59.705h-45.827v-9.86a20.023 20.023 0 0 0-20-20h-54.72a20.023 20.023 0 0 0-20 20v9.86H57.384a64.765 64.765 0 0 1 28.503-59.705Zm33.326 75.704h62.72v11.023a4.053 4.053 0 0 1-4 4h-54.72a4.053 4.053 0 0 1-4-4Zm0-16v-9.859a4.053 4.053 0 0 1 4-4h54.72a4.053 4.053 0 0 1 4 4v9.86Zm-16 16v11.023a20.023 20.023 0 0 0 20 20h54.72a20.023 20.023 0 0 0 20-20v-11.023h43.06L218.84 324.76a14.848 14.848 0 0 1-28.78 1.48l-14.769-48.549a25.837 25.837 0 0 0-49.437 0l-14.77 48.55a14.849 14.849 0 0 1-28.78-1.482L60.15 211.085Zm326.482 113.673a14.849 14.849 0 0 1-28.78 1.48l-14.77-48.548a25.837 25.837 0 0 0-49.436 0l-14.769 48.55a14.848 14.848 0 0 1-28.78-1.482l-22.154-113.673h43.061v11.023a20.023 20.023 0 0 0 20 20h54.72a20.023 20.023 0 0 0 20-20v-11.023h43.062Z"/></svg>